<svg width="121" height="41" viewBox="0 0 121 41" fill="none" xmlns="http://www.w3.org/2000/svg">
<g clip-path="url(#clip0_4_212)">
<g clip-path="url(#clip1_4_212)">
<g clip-path="url(#clip2_4_212)">
<path d="M0.5 0.159912V40.1599L120.5 40.1599V0.159912H0.5ZM1.34667 39.3132V1.00658H80.5V39.3132H1.34667ZM119.653 39.3133H81.3467V1.00658H119.653V39.3133Z" fill="white"/>
<path d="M69.0229 13.7219V22.5408C69.0229 22.6551 68.9465 22.6931 68.8894 22.5788L63.8611 13.6455C63.804 13.5503 63.6896 13.4932 63.5753 13.4932H61.423C61.2895 13.4932 61.1943 13.5883 61.1943 13.7219V26.5978C61.1943 26.731 61.2895 26.8265 61.423 26.8265H63.2894C63.4229 26.8265 63.5181 26.731 63.5181 26.5978V17.7981C63.5181 17.6837 63.5944 17.6457 63.6516 17.7597L68.6798 26.6738C68.737 26.7693 68.8514 26.8265 68.9657 26.8265H71.118C71.2515 26.8265 71.3467 26.731 71.3467 26.5978V13.7219C71.3467 13.5883 71.2515 13.4932 71.118 13.4932H69.2512C69.118 13.4932 69.0229 13.5883 69.0229 13.7219ZM55.5652 26.8265H57.4511C57.5843 26.8265 57.6795 26.731 57.6795 26.5978V13.7219C57.6795 13.5883 57.5843 13.4932 57.4511 13.4932H55.5652C55.432 13.4932 55.3369 13.5883 55.3369 13.7219V26.5978C55.3369 26.731 55.432 26.8265 55.5652 26.8265ZM48.0455 24.5027V13.7219C48.0455 13.5883 47.9504 13.4932 47.8172 13.4932H45.9313C45.7981 13.4932 45.7029 13.5883 45.7029 13.7219V26.5978C45.7029 26.731 45.7981 26.8265 45.9313 26.8265H52.4264C52.5599 26.8265 52.6551 26.731 52.6551 26.5978V24.8454C52.6551 24.7122 52.5599 24.6167 52.4264 24.6167H48.1599C48.0839 24.6167 48.0455 24.5599 48.0455 24.5027ZM35.726 15.7026H37.4596C39.0022 15.7026 40.2404 16.5218 40.2404 18.2171C40.2404 19.9123 39.0022 20.7312 37.4404 20.7312H35.726C35.65 20.7312 35.612 20.674 35.612 20.6168V15.8169C35.612 15.741 35.65 15.7026 35.726 15.7026ZM40.1452 26.8265H42.545C42.7357 26.8265 42.7925 26.693 42.6785 26.5406L39.8214 22.6739C39.783 22.6168 39.783 22.5408 39.8594 22.5028C41.5546 21.8171 42.6785 20.3122 42.6785 18.2171C42.6785 15.2456 40.4307 13.4932 37.5736 13.4932H33.4977C33.3642 13.4932 33.2691 13.5883 33.2691 13.7219V26.5978C33.2691 26.731 33.3642 26.8265 33.4977 26.8265H35.3833C35.5165 26.8265 35.612 26.731 35.612 26.5978V23.055C35.612 22.979 35.6688 22.9406 35.726 22.9406H37.1737C37.2309 22.9406 37.2881 22.979 37.3261 23.017L39.8786 26.6738C39.9357 26.7693 40.0309 26.8265 40.1452 26.8265ZM29.8064 15.4743V13.7219C29.8064 13.5883 29.7113 13.4932 29.5777 13.4932H22.6448C22.5112 13.4932 22.4161 13.5883 22.4161 13.7219V26.5978C22.4161 26.731 22.5112 26.8265 22.6448 26.8265H29.5777C29.7113 26.8265 29.8064 26.731 29.8064 26.5978V24.8454C29.8064 24.7122 29.7113 24.6167 29.5777 24.6167H24.8542C24.7778 24.6167 24.7399 24.5599 24.7399 24.5027V21.3025C24.7399 21.2266 24.797 21.1882 24.8542 21.1882H29.5777C29.7113 21.1882 29.8064 21.093 29.8064 20.9599V19.2266C29.8064 19.0931 29.7113 18.9979 29.5777 18.9979H24.8542C24.7778 18.9979 24.7399 18.9599 24.7399 18.8836V15.8169C24.7399 15.741 24.797 15.7026 24.8542 15.7026H29.5777C29.7113 15.7026 29.8064 15.6074 29.8064 15.4743ZM14.9569 24.6167H12.9378C12.8618 24.6167 12.8238 24.5599 12.8238 24.5027V21.3025C12.8238 21.2266 12.8618 21.1882 12.9378 21.1882H14.9569C16.1951 21.1882 16.8808 21.8931 16.8808 22.9026C16.8808 23.931 16.1951 24.6167 14.9569 24.6167ZM14.7665 15.7026C15.9664 15.7026 16.6329 16.3503 16.6329 17.3407C16.6329 18.3314 15.9664 18.9979 14.7665 18.9979H12.9378C12.8618 18.9979 12.8238 18.9599 12.8238 18.8836V15.8169C12.8238 15.741 12.8618 15.7026 12.9378 15.7026H14.7665ZM17.5473 19.8931C18.4997 19.2838 19.0711 18.3314 19.0711 17.0932C19.0711 15.0553 17.6617 13.4932 15.0712 13.4932H10.7283C10.5952 13.4932 10.5 13.5883 10.5 13.7219V26.5978C10.5 26.731 10.5952 26.8265 10.7283 26.8265H15.2427C17.9092 26.8265 19.3186 25.2072 19.3186 23.0741C19.3186 21.6836 18.652 20.636 17.5473 20.0455C17.471 19.9883 17.471 19.9311 17.5473 19.8931Z" fill="white"/>
<path fill-rule="evenodd" clip-rule="evenodd" d="M106.044 31.7295C106.043 31.7456 106.041 31.7617 106.037 31.7775C106.033 31.7996 106.027 31.8215 106.02 31.8424C105.951 32.0461 105.758 32.1954 105.528 32.1954H102.177C102.164 31.9107 102.312 31.2973 102.847 30.999C103.185 30.8105 103.755 30.6645 104.195 30.6366C101.897 29.252 100.537 27.2334 100.536 27.2307C100.535 27.2307 99.7122 28.0775 99.2472 29.018C98.6721 30.1823 98.5901 30.8563 98.4869 31.5055C98.4715 31.6054 98.4408 31.6965 98.4208 31.783C98.4205 31.7839 98.4205 31.7848 98.4202 31.7857C98.4141 31.8121 98.4062 31.8376 98.3968 31.8622C98.3962 31.8637 98.3956 31.8649 98.395 31.8664C98.3925 31.8728 98.3898 31.8788 98.3868 31.8852C98.3828 31.894 98.3786 31.9031 98.374 31.9116C98.3698 31.9195 98.3652 31.9271 98.3607 31.9347C98.3607 31.935 98.3604 31.9356 98.3598 31.9359C98.3273 31.9911 98.2854 32.0394 98.2359 32.0786C98.2341 32.0798 98.2326 32.0813 98.2308 32.0825C98.164 32.135 98.0845 32.1708 97.9986 32.186H97.9965C97.9819 32.1875 97.9667 32.1878 97.9519 32.1878H97.9054L97.7248 32.1875L94.4898 32.1802C94.4925 31.9065 94.583 31.3583 95.0243 31.0506C95.488 30.7274 96.0465 30.6415 96.6249 30.6096C96.3199 29.4144 96.2544 28.3977 96.4553 27.2759C96.7934 25.389 97.8226 24.013 98.5698 23.293C98.5698 23.293 98.1701 21.9707 98.0699 20.38L93.9271 21.218C93.7426 21.2559 93.5508 21.2247 93.3881 21.13L92.3395 20.5072C92.1911 20.4055 91.5176 20.0067 91.5176 20.0067C91.3895 19.9481 91.3428 19.7855 91.459 19.6692C91.459 19.6692 91.5768 19.5569 91.5795 19.5545C91.8876 19.2956 92.4132 19.0786 93.1113 19.3906C93.1131 19.3909 93.3368 19.4592 93.4937 19.5068C93.6275 19.5475 93.772 19.5323 93.8949 19.4656C93.8949 19.4656 93.8955 19.4649 93.8958 19.4649L98.1622 17.3304C98.1622 17.3304 94.1216 14.2684 94.1128 14.2611C94.0169 14.181 93.9435 14.0769 93.901 13.9588C93.901 13.9588 93.4743 13.0015 93.4445 12.9572L93.1058 12.3338C92.9908 12.0998 92.9932 11.9126 93.0205 11.8382C93.0454 11.7696 93.1082 11.7335 93.2306 11.7359C93.2306 11.7359 93.477 11.7129 93.7793 11.7378C94.1984 11.772 94.4088 11.8992 94.6503 12.234L95.0385 12.9035C95.1114 13.0082 95.2643 13.1384 95.3833 13.1846L99.3273 14.665L99.3547 14.6092C99.3756 14.5655 99.3996 14.5233 99.4272 14.4836C99.5231 14.3448 99.6278 14.2277 99.639 14.2153L99.6399 14.2143C100.952 12.6616 99.9252 12.2549 99.5717 12.1617L99.5695 12.1596C99.5371 12.152 99.5067 12.1387 99.4791 12.1211C99.4773 12.1205 99.4751 12.1189 99.4733 12.1177C99.2424 11.9809 99.2694 11.7851 99.2451 11.5572C99.2424 11.5292 99.3583 11.5086 99.5601 11.4792C99.8157 11.4421 100.032 11.2701 100.126 11.0303L100.169 10.9225C100.218 10.7981 100.156 10.5131 100.038 10.5769C99.5829 10.8245 99.3434 10.3905 99.2414 10.7926C99.2308 10.8345 99.1738 10.8458 99.137 10.823C99.056 10.7741 98.9364 10.6136 98.8775 10.4527C98.8669 10.4245 98.8193 10.3881 98.7698 10.355L98.7747 10.3523C98.6369 10.2409 98.5428 10.0776 98.5227 9.89276C98.5224 9.89033 98.5218 9.8882 98.5218 9.88608L98.442 9.17345H98.4426C98.4408 9.16283 98.4399 9.15191 98.4399 9.14067C98.4399 9.01442 98.5419 8.91183 98.6675 8.91183C98.6675 8.91183 98.9552 8.92428 99.2072 8.91365L99.7428 8.88785C99.7428 8.88785 99.9535 8.87359 100.149 8.81076C100.523 8.53245 100.958 8.33245 101.431 8.23381C101.649 8.18828 101.875 8.16431 102.106 8.16431C102.58 8.16431 103.029 8.26416 103.436 8.44474C103.436 8.44535 103.437 8.44565 103.438 8.44626C103.439 8.44687 103.44 8.44717 103.441 8.44777C103.442 8.44838 103.442 8.44838 103.443 8.44869C103.538 8.49907 103.668 8.58193 103.67 8.58345C103.67 8.58345 103.713 8.61015 103.785 8.66326C103.828 8.63139 103.926 8.5625 103.968 8.53853C104.363 8.30938 104.893 8.48632 105.152 8.93308C105.371 9.31397 105.315 9.77257 105.03 10.06C105.052 10.097 105.074 10.1346 105.095 10.1732C105.218 10.4372 105.413 11.0063 105.488 11.3523C105.649 12.0671 105.764 12.8298 105.672 13.7445C105.559 14.8745 105.169 15.8958 104.956 16.3607C104.957 16.3622 104.958 16.3634 104.958 16.3644V16.3647C104.959 16.3656 104.959 16.3665 104.959 16.3671C104.946 16.399 104.934 16.4311 104.923 16.4636C104.904 16.5164 104.884 16.5695 104.866 16.6229C104.545 17.555 104.372 18.556 104.372 19.5973C104.372 21.2869 104.655 22.9868 105.445 24.3511C105.581 24.5872 105.466 24.9374 105.16 24.9905C105.16 24.9905 105.109 25.0027 105.016 25.0218C105.346 26.9797 106.028 31.5174 106.044 31.6218C106.044 31.623 106.044 31.6236 106.044 31.6236C106.048 31.6594 106.048 31.6949 106.044 31.7295Z" fill="white"/>
</g>
</g>
</g>
<defs>
<clipPath id="clip0_4_212">
<rect width="120" height="40" fill="white" transform="translate(0.5 0.159912)"/>
</clipPath>
<clipPath id="clip1_4_212">
<rect width="120" height="40" fill="white" transform="translate(0.5 0.159912)"/>
</clipPath>
<clipPath id="clip2_4_212">
<rect width="120" height="40" fill="white" transform="translate(0.5 0.159912)"/>
</clipPath>
</defs>
</svg>
